# xmcd
# 
# Track frame offsets:
#     150
#     15540
#     34897
#     54622
#     70345
#     84447
#     100587
#     112527
#     130652
#     145370
#     160677
#     176102
#     192447
#     205182
# 
# Disc length: 2964
# 
# Revision: 1
# Processed by: cddbd v1.5.2PL0 Copyright (c) Steve Scherf et al.
# Submitted via: fre:ac v1.0.17
# 
DISCID=b60b920e
DTITLE=Various Artist - O Boticário - Sertanejo Forró
DYEAR=2000
DGENRE=Sertanejo
TTITLE0=Chitãozinho and Xororó - Pura Emoção
TTITLE1=Rio Negro e Solimões - Frio da Madrugada
TTITLE2=Roberta Miranda - A Mulher em Mim
TTITLE3=Chitãozinho and Xororó - Bailão de Peão
TTITLE4=Adalberto and Adriano - Não Acredito
TTITLE5=Chitãozinho and Xororó - Coração Sertanejo
TTITLE6=Roberta Miranda - Vida Dividida
TTITLE7=Adalberto and Adriano - Ternura
TTITLE8=Chitãozinho and Xororó - Vá Pro Inferno Com Seu Amor
TTITLE9=Companhia do Forró - O Amor Chega a Enlouquecer
TTITLE10=Mastruz Com leite - Vou Te Matar De Cheiro
TTITLE11=Kátia Di Tróia - Qui Nem Giló
TTITLE12=Mastruz Com Leite - Forró Quentinho
TTITLE13=Capital do Sol - Voltando no Tempo
EXTD=
EXTT0=
EXTT1=
EXTT2=
EXTT3=
EXTT4=
EXTT5=
EXTT6=
EXTT7=
EXTT8=
EXTT9=
EXTT10=
EXTT11=
EXTT12=
EXTT13=
PLAYORDER=
